<mxfile host="app.diagrams.net" modified="2022-02-09T18:43:33.855Z" agent="5.0 (Windows)" etag="YWY_OYDTzBxxL_fkEzn8" version="16.5.4" type="github">
  <diagram id="uy5lw_yQ_hJl8o4zhd7S" name="Page-1">
    <mxGraphModel dx="1038" dy="536" grid="1" gridSize="10" guides="1" tooltips="1" connect="1" arrows="1" fold="1" page="1" pageScale="1" pageWidth="827" pageHeight="1169" math="0" shadow="0">
      <root>
        <mxCell id="0" />
        <mxCell id="1" parent="0" />
        <mxCell id="RZWfU97EguXZhOJXuSMn-3" value="VPC" style="sketch=0;outlineConnect=0;gradientColor=none;html=1;whiteSpace=wrap;fontSize=12;fontStyle=0;shape=mxgraph.aws4.group;grIcon=mxgraph.aws4.group_vpc;strokeColor=#879196;fillColor=none;verticalAlign=top;align=left;spacingLeft=30;fontColor=#879196;dashed=0;" vertex="1" parent="1">
          <mxGeometry x="30" y="270" width="720" height="530" as="geometry" />
        </mxCell>
        <mxCell id="RZWfU97EguXZhOJXuSMn-1" value="idpprod01" style="points=[[0,0],[0.25,0],[0.5,0],[0.75,0],[1,0],[1,0.25],[1,0.5],[1,0.75],[1,1],[0.75,1],[0.5,1],[0.25,1],[0,1],[0,0.75],[0,0.5],[0,0.25]];outlineConnect=0;gradientColor=none;html=1;whiteSpace=wrap;fontSize=12;fontStyle=0;container=1;pointerEvents=0;collapsible=0;recursiveResize=0;shape=mxgraph.aws4.group;grIcon=mxgraph.aws4.group_ec2_instance_contents;strokeColor=#D86613;fillColor=none;verticalAlign=top;align=left;spacingLeft=30;fontColor=#D86613;dashed=0;" vertex="1" parent="1">
          <mxGeometry x="80" y="335" width="170" height="250" as="geometry" />
        </mxCell>
        <mxCell id="RZWfU97EguXZhOJXuSMn-11" value="tomcat-idp-op" style="aspect=fixed;labelPosition=center;verticalLabelPosition=bottom;align=center;verticalAlign=top;fillColor=#f8cecc;strokeColor=#b85450;whiteSpace=wrap;labelBorderColor=none;labelBackgroundColor=none;gradientColor=#ffffff;gradientDirection=north;rounded=1;glass=0;shadow=1;sketch=0;" vertex="1" parent="RZWfU97EguXZhOJXuSMn-1">
          <mxGeometry x="20" y="100" width="130" height="130" as="geometry" />
        </mxCell>
        <mxCell id="RZWfU97EguXZhOJXuSMn-18" value="Shibboleth IDP" style="sketch=0;pointerEvents=1;shadow=0;dashed=0;html=1;strokeColor=none;labelPosition=center;verticalLabelPosition=middle;verticalAlign=middle;align=center;fillColor=#00188D;shape=mxgraph.mscae.enterprise.application_blank;rounded=1;glass=0;labelBackgroundColor=none;labelBorderColor=none;" vertex="1" parent="RZWfU97EguXZhOJXuSMn-1">
          <mxGeometry x="38.49" y="140" width="93.02" height="50" as="geometry" />
        </mxCell>
        <mxCell id="RZWfU97EguXZhOJXuSMn-17" value="apache" style="dashed=0;outlineConnect=0;html=1;align=center;labelPosition=center;verticalLabelPosition=middle;verticalAlign=middle;shape=mxgraph.webicons.apache;gradientColor=#DFDEDE;rounded=1;shadow=0;glass=0;labelBackgroundColor=none;labelBorderColor=none;sketch=0;" vertex="1" parent="1">
          <mxGeometry x="120" y="365" width="70" height="50" as="geometry" />
        </mxCell>
        <mxCell id="RZWfU97EguXZhOJXuSMn-19" value="" style="sketch=0;outlineConnect=0;fontColor=#232F3E;gradientColor=none;fillColor=#2E27AD;strokeColor=none;dashed=0;verticalLabelPosition=bottom;verticalAlign=top;align=center;html=1;fontSize=12;fontStyle=0;aspect=fixed;pointerEvents=1;shape=mxgraph.aws4.rds_instance;rounded=1;shadow=0;glass=0;labelBackgroundColor=none;labelBorderColor=none;" vertex="1" parent="1">
          <mxGeometry x="320" y="520" width="78" height="78" as="geometry" />
        </mxCell>
        <mxCell id="RZWfU97EguXZhOJXuSMn-20" value="opprod01" style="points=[[0,0],[0.25,0],[0.5,0],[0.75,0],[1,0],[1,0.25],[1,0.5],[1,0.75],[1,1],[0.75,1],[0.5,1],[0.25,1],[0,1],[0,0.75],[0,0.5],[0,0.25]];outlineConnect=0;gradientColor=none;html=1;whiteSpace=wrap;fontSize=12;fontStyle=0;container=1;pointerEvents=0;collapsible=0;recursiveResize=0;shape=mxgraph.aws4.group;grIcon=mxgraph.aws4.group_ec2_instance_contents;strokeColor=#D86613;fillColor=none;verticalAlign=top;align=left;spacingLeft=30;fontColor=#D86613;dashed=0;rounded=1;shadow=0;glass=0;labelBackgroundColor=none;labelBorderColor=none;sketch=0;" vertex="1" parent="1">
          <mxGeometry x="480" y="335" width="240" height="445" as="geometry" />
        </mxCell>
        <mxCell id="RZWfU97EguXZhOJXuSMn-21" value="mwprod01" style="points=[[0,0],[0.25,0],[0.5,0],[0.75,0],[1,0],[1,0.25],[1,0.5],[1,0.75],[1,1],[0.75,1],[0.5,1],[0.25,1],[0,1],[0,0.75],[0,0.5],[0,0.25]];outlineConnect=0;gradientColor=none;html=1;whiteSpace=wrap;fontSize=12;fontStyle=0;container=1;pointerEvents=0;collapsible=0;recursiveResize=0;shape=mxgraph.aws4.group;grIcon=mxgraph.aws4.group_ec2_instance_contents;strokeColor=#D86613;fillColor=none;verticalAlign=top;align=left;spacingLeft=30;fontColor=#D86613;dashed=0;rounded=1;shadow=0;glass=0;labelBackgroundColor=none;labelBorderColor=none;sketch=0;" vertex="1" parent="1">
          <mxGeometry x="100" y="640" width="130" height="130" as="geometry" />
        </mxCell>
        <mxCell id="RZWfU97EguXZhOJXuSMn-22" value="ELB" style="sketch=0;outlineConnect=0;fontColor=#232F3E;gradientColor=none;fillColor=#4D27AA;strokeColor=none;dashed=0;verticalLabelPosition=bottom;verticalAlign=top;align=center;html=1;fontSize=12;fontStyle=0;aspect=fixed;pointerEvents=1;shape=mxgraph.aws4.application_load_balancer;rounded=1;shadow=0;glass=0;labelBackgroundColor=none;labelBorderColor=none;" vertex="1" parent="1">
          <mxGeometry x="351" y="180" width="78" height="78" as="geometry" />
        </mxCell>
        <mxCell id="RZWfU97EguXZhOJXuSMn-24" value="" style="edgeStyle=orthogonalEdgeStyle;rounded=0;orthogonalLoop=1;jettySize=auto;html=1;" edge="1" parent="1" source="RZWfU97EguXZhOJXuSMn-23" target="RZWfU97EguXZhOJXuSMn-22">
          <mxGeometry relative="1" as="geometry" />
        </mxCell>
        <mxCell id="RZWfU97EguXZhOJXuSMn-23" value="NLB" style="sketch=0;outlineConnect=0;fontColor=#232F3E;gradientColor=none;fillColor=#4D27AA;strokeColor=none;dashed=0;verticalLabelPosition=bottom;verticalAlign=top;align=center;html=1;fontSize=12;fontStyle=0;aspect=fixed;pointerEvents=1;shape=mxgraph.aws4.network_load_balancer;rounded=1;shadow=0;glass=0;labelBackgroundColor=none;labelBorderColor=none;" vertex="1" parent="1">
          <mxGeometry x="240" y="180" width="78" height="78" as="geometry" />
        </mxCell>
      </root>
    </mxGraphModel>
  </diagram>
</mxfile>
